<?xml version="1.0" encoding="UTF-8"?>
<svg id="Camada_2" data-name="Camada 2" xmlns="http://www.w3.org/2000/svg" viewBox="0 0 217.9 217.56">
  <defs>
    <style>
      .cls-1 {
        fill: #161616;
      }
    </style>
  </defs>
  <g id="Camada_1-2" data-name="Camada 1">
    <g>
      <g>
        <path class="cls-1" d="M106.49,123.36c40.06-7.74,77.41-12.18,111.32-14.47.13,0,.13-.22,0-.23-33.91-2.29-71.26-6.73-111.32-14.47-35.07-6.78-67.39-15.15-96.72-24.19-.04-.01-.09,0-.11.05C6.67,75.56,0,89.45,0,108.78c0,19.32,6.67,33.22,9.66,38.72.02.04.07.06.11.05,29.32-9.04,61.65-17.41,96.72-24.19Z"/>
        <path class="cls-1" d="M106.49,123.36c40.06-7.74,77.41-12.18,111.32-14.47.13,0,.13-.22,0-.23-33.91-2.29-71.26-6.73-111.32-14.47-35.07-6.78-67.39-15.15-96.72-24.19-.04-.01-.09,0-.11.05C6.67,75.56,0,89.45,0,108.78c0,19.32,6.67,33.22,9.66,38.72.02.04.07.06.11.05,29.32-9.04,61.65-17.41,96.72-24.19Z"/>
      </g>
      <path class="cls-1" d="M43.24,186.12c-.06.03-.07.12-.03.18,5.12,7.21,12.3,15.94,21.95,24.35.09.08.17.15.26.23,11.86,10.29,28.5,8.47,38.72-3.96,10.8-13.14,24.44-27.49,41.31-41.17,26.33-21.36,51.34-33.66,69.82-40.87.11-.04.08-.24-.04-.23-26.4,3.51-58.36,10.27-93.54,23.33-30.84,11.45-57.08,25.11-78.44,38.14Z"/>
      <path class="cls-1" d="M43.24,31.44c-.06-.03-.07-.12-.03-.18,5.12-7.21,12.3-15.94,21.95-24.35.09-.08.17-.15.26-.23,11.86-10.29,28.5-8.47,38.72,3.96,10.8,13.14,24.44,27.49,41.31,41.17,26.33,21.36,51.34,33.66,69.82,40.87.11.04.08.24-.04.23-26.4-3.51-58.36-10.27-93.54-23.33-30.84-11.45-57.08-25.11-78.44-38.14Z"/>
    </g>
  </g>
</svg>