<?xml version="1.0" encoding="UTF-8"?>
<svg id="Camada_2" data-name="Camada 2" xmlns="http://www.w3.org/2000/svg" viewBox="0 0 842.43 217.56">
  <defs>
    <style>
      .cls-1 {
        fill: #161616;
      }
    </style>
  </defs>
  <g id="Camada_1-2" data-name="Camada 1">
    <g>
      <g>
        <path class="cls-1" d="M275.2,190.86h-1.94c0-.67-.35-1.2-1.04-1.59-.69-.39-1.59-.58-2.69-.58-1.21,0-2.16.24-2.85.71-.69.47-1.04,1.12-1.04,1.94,0,.69.24,1.24.73,1.63.49.4,1.09.73,1.83.99.73.26,1.53.5,2.38.73.85.23,1.65.53,2.38.91.73.38,1.34.87,1.83,1.49.49.61.73,1.44.73,2.48,0,.78-.15,1.48-.44,2.1-.29.63-.7,1.17-1.23,1.62-.53.45-1.17.8-1.93,1.05-.76.25-1.59.37-2.49.37s-1.74-.12-2.51-.37c-.77-.25-1.42-.59-1.96-1.04-.54-.44-.96-.98-1.26-1.6-.3-.63-.45-1.33-.45-2.1h1.94c0,.97.4,1.74,1.2,2.31.8.57,1.82.86,3.07.86s2.25-.28,2.99-.84c.74-.56,1.12-1.33,1.12-2.3,0-.78-.24-1.38-.73-1.81-.49-.43-1.1-.78-1.83-1.05-.73-.27-1.52-.51-2.36-.73-.84-.22-1.63-.5-2.36-.84-.73-.34-1.34-.81-1.83-1.39-.49-.58-.73-1.37-.73-2.36,0-1.45.52-2.59,1.57-3.43,1.05-.84,2.46-1.26,4.26-1.26s3.07.38,4.09,1.13c1.02.76,1.54,1.75,1.54,2.98Z"/>
        <path class="cls-1" d="M290.34,195.72c0-1.34.22-2.56.65-3.66.43-1.1,1.04-2.04,1.83-2.83s1.73-1.4,2.83-1.83c1.1-.43,2.33-.65,3.69-.65s2.56.22,3.66.65c1.1.43,2.04,1.04,2.83,1.83.79.79,1.4,1.73,1.83,2.83.43,1.1.65,2.32.65,3.66s-.22,2.59-.65,3.69c-.43,1.1-1.04,2.04-1.83,2.83-.79.79-1.73,1.4-2.83,1.83-1.1.43-2.32.65-3.66.65s-2.59-.22-3.69-.65c-1.1-.43-2.04-1.04-2.83-1.83-.79-.79-1.4-1.73-1.83-2.83-.43-1.1-.65-2.33-.65-3.69ZM292.28,195.72c0,2.18.63,3.9,1.89,5.16s2.98,1.89,5.16,1.89c1.08,0,2.05-.16,2.91-.49.86-.32,1.6-.79,2.22-1.41.62-.61,1.08-1.36,1.41-2.23s.49-1.85.49-2.93-.17-2.05-.5-2.91c-.33-.86-.8-1.6-1.41-2.2-.6-.6-1.34-1.07-2.2-1.41-.86-.33-1.83-.5-2.91-.5s-2.06.16-2.93.49c-.87.32-1.62.79-2.23,1.41s-1.08,1.35-1.41,2.22c-.32.86-.49,1.83-.49,2.91Z"/>
        <path class="cls-1" d="M325.06,183.94v14.76c0,2.74,1.5,4.11,4.5,4.11v1.88h-.74c-.86,0-1.65-.14-2.35-.42-.7-.28-1.3-.68-1.8-1.2-.5-.52-.88-1.14-1.15-1.86-.27-.72-.4-1.53-.4-2.41v-14.86h1.94Z"/>
        <path class="cls-1" d="M357.48,186.73v10.55c0,1.12-.16,2.14-.47,3.06-.31.92-.75,1.7-1.31,2.35-.56.65-1.24,1.15-2.04,1.51-.8.36-1.68.53-2.65.53s-1.9-.18-2.72-.53c-.82-.36-1.52-.86-2.1-1.51-.58-.65-1.03-1.43-1.34-2.35-.31-.92-.47-1.94-.47-3.06v-10.55h1.94v10.71c0,1.62.42,2.91,1.26,3.88.84.97,1.96,1.46,3.37,1.46.69,0,1.32-.13,1.88-.39.56-.26,1.05-.62,1.46-1.08.41-.46.72-1.02.94-1.68.22-.66.32-1.39.32-2.18v-10.71h1.94Z"/>
        <path class="cls-1" d="M374.88,186.73v-2.78h1.94v2.78h5.11v1.88h-5.11v9.78c0,1.36.29,2.44.86,3.24.57.8,1.35,1.2,2.35,1.2h1.91v1.88h-1.68c-.8,0-1.53-.14-2.2-.42-.67-.28-1.24-.68-1.7-1.2-.46-.52-.83-1.14-1.08-1.86-.26-.72-.39-1.53-.39-2.41v-10.2h-2.59v-1.88h2.59Z"/>
        <path class="cls-1" d="M396.75,185.34c0-.43.12-.77.37-1.02s.59-.37,1.02-.37.77.12,1.02.37c.25.25.37.59.37,1.02s-.12.77-.37,1.02-.59.37-1.02.37-.77-.12-1.02-.37c-.25-.25-.37-.59-.37-1.02ZM397.17,188.59h1.94v16.1h-1.94v-16.1Z"/>
        <path class="cls-1" d="M414.35,195.72c0-1.34.22-2.56.65-3.66.43-1.1,1.04-2.04,1.83-2.83s1.73-1.4,2.83-1.83c1.1-.43,2.33-.65,3.69-.65s2.56.22,3.66.65c1.1.43,2.04,1.04,2.83,1.83.79.79,1.4,1.73,1.83,2.83.43,1.1.65,2.32.65,3.66s-.22,2.59-.65,3.69c-.43,1.1-1.04,2.04-1.83,2.83-.79.79-1.73,1.4-2.83,1.83-1.1.43-2.32.65-3.66.65s-2.59-.22-3.69-.65c-1.1-.43-2.04-1.04-2.83-1.83-.79-.79-1.4-1.73-1.83-2.83-.43-1.1-.65-2.33-.65-3.69ZM416.29,195.72c0,2.18.63,3.9,1.89,5.16,1.26,1.26,2.98,1.89,5.16,1.89,1.08,0,2.05-.16,2.91-.49.86-.32,1.6-.79,2.22-1.41.62-.61,1.08-1.36,1.41-2.23.32-.87.49-1.85.49-2.93s-.17-2.05-.5-2.91c-.33-.86-.8-1.6-1.41-2.2-.6-.6-1.34-1.07-2.2-1.41-.86-.33-1.83-.5-2.91-.5s-2.06.16-2.93.49c-.87.32-1.62.79-2.23,1.41s-1.08,1.35-1.41,2.22c-.32.86-.49,1.83-.49,2.91Z"/>
        <path class="cls-1" d="M458.29,193.58c0-.71-.11-1.36-.34-1.96-.23-.59-.54-1.11-.95-1.55-.41-.44-.9-.78-1.46-1.02-.56-.24-1.18-.36-1.85-.36s-1.28.12-1.84.37c-.56.25-1.05.59-1.46,1.02-.41.43-.73.94-.97,1.54-.24.59-.36,1.25-.36,1.96v11.11h-1.94v-10.49c0-1.12.16-2.14.47-3.06.31-.92.76-1.7,1.34-2.35.58-.65,1.28-1.15,2.1-1.51.82-.36,1.73-.53,2.72-.53s1.86.18,2.65.53c.8.36,1.48.86,2.04,1.51.56.65,1,1.43,1.31,2.35.31.92.47,1.94.47,3.06v10.49h-1.94v-11.11Z"/>
        <path class="cls-1" d="M486.99,190.84h-1.94c0-.67-.35-1.2-1.04-1.59-.69-.39-1.59-.58-2.69-.58-1.21,0-2.16.24-2.85.71-.69.47-1.04,1.12-1.04,1.94,0,.69.24,1.24.73,1.63.49.4,1.09.73,1.83.99.73.26,1.53.5,2.38.73.85.23,1.65.53,2.38.91.73.38,1.34.87,1.83,1.49.49.61.73,1.44.73,2.48,0,.78-.15,1.48-.44,2.1-.29.63-.7,1.17-1.23,1.62-.53.45-1.17.8-1.93,1.05-.76.25-1.59.37-2.49.37s-1.74-.12-2.51-.37c-.77-.25-1.42-.59-1.96-1.04-.54-.44-.96-.98-1.26-1.6-.3-.63-.45-1.33-.45-2.1h1.94c0,.97.4,1.74,1.2,2.31.8.57,1.82.86,3.08.86s2.25-.28,2.99-.84c.74-.56,1.12-1.33,1.12-2.3,0-.78-.24-1.38-.73-1.81-.49-.43-1.1-.78-1.83-1.05-.73-.27-1.52-.51-2.36-.73-.84-.22-1.63-.5-2.36-.84-.73-.34-1.34-.81-1.83-1.39-.49-.58-.73-1.37-.73-2.36,0-1.45.52-2.59,1.57-3.43,1.05-.84,2.46-1.26,4.26-1.26s3.07.38,4.09,1.13c1.02.76,1.54,1.75,1.54,2.98Z"/>
      </g>
      <g>
        <path class="cls-1" d="M379,80.27c-3.33-8.53-8.12-15.96-14.24-22.07-6.11-6.11-13.54-10.91-22.07-14.24-8.51-3.35-18.12-5.03-28.58-5.03s-19.85,1.68-28.36,5.03c-8.53,3.33-15.94,8.12-22.05,14.24-6.11,6.11-10.91,13.54-14.25,22.07-3.33,8.49-5.01,18.12-5.01,28.58s1.68,19.85,5.01,28.36c3.35,8.53,8.14,15.94,14.25,22.05,6.11,6.11,13.52,10.91,22.05,14.25,8.51,3.33,18.06,5.03,28.36,5.03,8.78,0,17.05-1.23,24.56-3.64,7.52-2.43,14.25-5.86,20.02-10.21,5.78-4.36,10.76-9.79,14.77-16.16,4.03-6.35,6.9-13.49,8.58-21.17l.48-2.21h-18.56l-.4,1.28c-3.44,10.81-9.48,19.23-17.9,25-8.47,5.82-19.09,8.75-31.55,8.75-14.68,0-26.68-3.97-35.66-11.78-8.55-7.43-13.67-17.71-15.22-30.6h120.35l.2-1.61c.18-1.43.26-2.65.26-3.79v-3.55c0-10.47-1.68-20.07-5.03-28.58ZM263.26,99.93c1.7-12.88,6.88-23.22,15.43-30.72,9-7.91,20.93-11.91,35.43-11.91s26.94,4.04,36.01,12.04c8.62,7.58,13.71,17.86,15.11,30.6h-101.98Z"/>
        <path class="cls-1" d="M518.41,12.78v46.41c-5.62-5.82-12.35-10.52-20.09-14.02-9.26-4.17-19.85-6.28-31.49-6.28-10.3,0-19.84,1.68-28.34,5.03-8.53,3.33-15.96,8.12-22.05,14.24-6.13,6.11-10.92,13.54-14.25,22.07-3.33,8.49-5.03,18.12-5.03,28.58s1.7,19.85,5.03,28.36c3.35,8.53,8.14,15.94,14.25,22.05,6.09,6.11,13.52,10.91,22.05,14.25,8.51,3.33,18.04,5.03,28.34,5.03s20.09-1.7,28.6-5.03c8.53-3.35,15.94-8.14,22.05-14.25,6.11-6.11,10.91-13.52,14.25-22.05,3.33-8.51,5.03-18.06,5.03-28.36V12.78h-18.35ZM514.74,130.1c-2.43,6.35-5.91,11.77-10.36,16.12-4.45,4.37-9.88,7.83-16.16,10.27-6.28,2.43-13.49,3.66-21.39,3.66s-14.9-1.23-21.26-3.68c-6.35-2.42-11.78-5.87-16.14-10.23-4.37-4.37-7.81-9.79-10.25-16.14-2.43-6.37-3.68-13.52-3.68-21.28s1.24-15.1,3.68-21.37c2.43-6.28,5.87-11.71,10.27-16.16,4.36-4.45,9.77-7.92,16.12-10.36,6.37-2.43,13.54-3.68,21.26-3.68s15.1,1.24,21.39,3.68c6.28,2.43,11.69,5.91,16.14,10.36,4.45,4.45,7.94,9.88,10.38,16.16,2.43,6.29,3.68,13.49,3.68,21.37s-1.24,14.9-3.68,21.28Z"/>
        <path class="cls-1" d="M837.4,80.27c-3.33-8.53-8.12-15.96-14.24-22.07-6.13-6.11-13.54-10.91-22.07-14.24-8.51-3.35-18.12-5.03-28.58-5.03s-19.85,1.68-28.36,5.03c-8.53,3.33-15.94,8.12-22.05,14.24s-10.91,13.54-14.25,22.07c-3.33,8.49-5.03,18.12-5.03,28.58s1.7,19.85,5.03,28.36c3.35,8.53,8.14,15.94,14.25,22.05s13.52,10.91,22.05,14.25c8.51,3.33,18.06,5.03,28.36,5.03,8.78,0,17.05-1.23,24.56-3.64,7.52-2.43,14.25-5.86,20.02-10.21,5.78-4.36,10.76-9.79,14.77-16.16,4.03-6.35,6.9-13.49,8.58-21.17l.48-2.21h-18.56l-.4,1.28c-3.46,10.81-9.48,19.23-17.9,25-8.47,5.82-19.09,8.75-31.55,8.75-14.68,0-26.68-3.97-35.66-11.78-8.55-7.43-13.67-17.71-15.22-30.6h120.35l.2-1.61c.16-1.41.26-2.65.26-3.79v-3.55c0-10.47-1.68-20.07-5.03-28.58ZM721.64,99.93c1.72-12.88,6.9-23.2,15.44-30.72,9-7.91,20.92-11.91,35.43-11.91s26.94,4.04,36.01,12.04c8.62,7.58,13.71,17.86,15.11,30.6h-102Z"/>
        <path class="cls-1" d="M689.73,108.62c0-10.3-1.7-19.85-5.01-28.34-3.35-8.53-8.16-15.94-14.25-22.07-6.11-6.09-13.56-10.89-22.07-14.24-8.51-3.35-18.12-5.03-28.58-5.03s-20.09,1.68-28.58,5.03c-8.53,3.35-15.96,8.14-22.07,14.24-6.11,6.13-10.91,13.54-14.27,22.07-3.31,8.49-5.01,18.04-5.01,28.34s1.7,20.09,5.01,28.6c3.37,8.53,8.16,15.94,14.27,22.05,6.11,6.11,13.54,10.91,22.07,14.25,8.49,3.33,18.1,5.03,28.58,5.03s20.07-1.7,28.58-5.03c5.31-2.09,10.17-4.7,14.57-7.89-1.63,2.51-3.51,4.79-5.62,6.84-6.69,6.51-16.16,10.25-16.16,10.25-7.58,2.97-13.82,3.32-21.37,3.68-6.34.3-15.34.18-26.09-1.83v18.35c10.8,1.63,19.7,1.92,26.09,1.83,8.01-.11,12.53-.81,15.03-1.26,7.19-1.31,12.39-3.31,13.56-3.77,8.53-3.35,15.96-8.14,22.07-14.24,6.11-6.13,10.91-13.54,14.25-22.07,3.33-8.49,5.01-18.04,5.01-28.34v-24.85h-.02c.02-.53.02-1.08.02-1.61ZM670.95,116.36s-.02.09-.02.15c-.22,1.83-.51,3.62-.88,5.36-.11.57-.24,1.12-.38,1.68-.51,2.25-1.19,4.41-1.98,6.46-2.42,6.26-5.91,11.69-10.38,16.14-4.45,4.46-9.88,7.94-16.14,10.38-6.28,2.43-13.47,3.66-21.37,3.66s-15.1-1.23-21.37-3.66c-6.26-2.43-11.69-5.91-16.16-10.38-4.45-4.45-7.94-9.88-10.36-16.14-2.43-6.29-3.68-13.49-3.68-21.39s1.24-15.1,3.68-21.39c2.42-6.24,5.89-11.64,10.36-16.01,4.45-4.37,9.88-7.81,16.16-10.25,6.28-2.43,13.49-3.68,21.37-3.68s15.1,1.24,21.37,3.68c6.28,2.43,11.71,5.87,16.14,10.25,3.29,3.2,6.04,6.95,8.2,11.2.81,1.54,1.54,3.15,2.18,4.81,2.43,6.29,3.68,13.49,3.68,21.39,0,2.67-.15,5.23-.42,7.74Z"/>
      </g>
    </g>
    <g>
      <g>
        <path class="cls-1" d="M106.49,123.36c40.06-7.74,77.41-12.18,111.32-14.47.13,0,.13-.22,0-.23-33.91-2.29-71.26-6.73-111.32-14.47-35.07-6.78-67.39-15.15-96.72-24.19-.04-.01-.09,0-.11.05C6.67,75.56,0,89.45,0,108.78c0,19.32,6.67,33.22,9.66,38.72.02.04.07.06.11.05,29.32-9.04,61.65-17.41,96.72-24.19Z"/>
        <path class="cls-1" d="M106.49,123.36c40.06-7.74,77.41-12.18,111.32-14.47.13,0,.13-.22,0-.23-33.91-2.29-71.26-6.73-111.32-14.47-35.07-6.78-67.39-15.15-96.72-24.19-.04-.01-.09,0-.11.05C6.67,75.56,0,89.45,0,108.78c0,19.32,6.67,33.22,9.66,38.72.02.04.07.06.11.05,29.32-9.04,61.65-17.41,96.72-24.19Z"/>
      </g>
      <path class="cls-1" d="M43.24,186.12c-.06.03-.07.12-.03.18,5.12,7.21,12.3,15.94,21.95,24.35.09.08.17.15.26.23,11.86,10.29,28.5,8.47,38.72-3.96,10.8-13.14,24.44-27.49,41.31-41.17,26.33-21.36,51.34-33.66,69.82-40.87.11-.04.08-.24-.04-.23-26.4,3.51-58.36,10.27-93.54,23.33-30.84,11.45-57.08,25.11-78.44,38.14Z"/>
      <path class="cls-1" d="M43.24,31.44c-.06-.03-.07-.12-.03-.18,5.12-7.21,12.3-15.94,21.95-24.35.09-.08.17-.15.26-.23,11.86-10.29,28.5-8.47,38.72,3.96,10.8,13.14,24.44,27.49,41.31,41.17,26.33,21.36,51.34,33.66,69.82,40.87.11.04.08.24-.04.23-26.4-3.51-58.36-10.27-93.54-23.33-30.84-11.45-57.08-25.11-78.44-38.14Z"/>
    </g>
  </g>
</svg>